<svg xmlns="http://www.w3.org/2000/svg" width="293.271" height="51.315" viewBox="0 0 293.271 51.315">
  <g id="Grupo_105" data-name="Grupo 105" transform="translate(-83.723 -79.128)">
    <path id="Trazado_1" data-name="Trazado 1" d="M330.362,96.167h7.025v40.005" transform="translate(-116.555 -8.052)" fill="none" stroke="#161615" stroke-width="0.5"/>
    <line id="Línea_1" data-name="Línea 1" x2="13.101" transform="translate(229.027 100.943)" fill="none" stroke="#161615" stroke-width="0.5"/>
    <g id="Grupo_1" data-name="Grupo 1" transform="translate(153.528 90.36)">
      <path id="Trazado_2" data-name="Trazado 2" d="M236.274,106.247s0-6.835-9.835-5.7-9.8,11.2-4.48,14.62,16.139,8.165,16.139,14.051a10.371,10.371,0,0,1-10.443,10.253c-5.506,0-11.2-4.51-11.582-7.595" transform="translate(-216.073 -100.423)" fill="none" stroke="#161615" stroke-width="0.5"/>
      <path id="Trazado_3" data-name="Trazado 3" d="M279.409,124.936s-.56-4.655,7.984-4.655c8.354,0,8.046,5.573,8.046,7.313v19.975h5.207" transform="translate(-246 -109.807)" fill="none" stroke="#161615" stroke-width="0.5"/>
      <path id="Trazado_4" data-name="Trazado 4" d="M429.226,124.936s-.56-4.655,7.984-4.655c8.355,0,8.046,5.573,8.046,7.313v19.975h5.208" transform="translate(-316.8 -109.807)" fill="none" stroke="#161615" stroke-width="0.5"/>
    </g>
    <line id="Línea_2" data-name="Línea 2" x2="9.873" y2="27.287" transform="translate(234.225 100.833)" fill="none" stroke="#161615" stroke-width="0.75"/>
    <path id="Trazado_5" data-name="Trazado 5" d="M368.233,133.559H366.4a9.394,9.394,0,0,1-1.571-.125,2.923,2.923,0,0,1-1.266-.514,2.576,2.576,0,0,1-.834-1.155,5.519,5.519,0,0,1-.306-2.016V119.9q0-.668.056-1.585a16.787,16.787,0,0,1,.236-1.933,15.505,15.505,0,0,1,.5-2.016,7.762,7.762,0,0,1,.821-1.794,4.408,4.408,0,0,1,1.224-1.293,2.953,2.953,0,0,1,1.724-.5,2.717,2.717,0,0,1,1.349.306,2.217,2.217,0,0,1,.862.89,4.336,4.336,0,0,1,.445,1.474,14.962,14.962,0,0,1,.125,2.058,8.631,8.631,0,0,0,5.34-1.446A4.819,4.819,0,0,0,376.995,110a4.02,4.02,0,0,0-1.585-3.435,8.322,8.322,0,0,0-4.951-1.182,12.448,12.448,0,0,0-3.017.32,6.784,6.784,0,0,0-2.2.959,6.241,6.241,0,0,0-1.6,1.6,12.981,12.981,0,0,0-1.224,2.239h-.278l-1.14-4.45H349.487v3.032h.167a10.339,10.339,0,0,1,1.7.126,2.854,2.854,0,0,1,1.293.542,2.632,2.632,0,0,1,.834,1.182,5.765,5.765,0,0,1,.292,2.016v16.522a5.923,5.923,0,0,1-.32,2.141,2.745,2.745,0,0,1-.9,1.238,3.226,3.226,0,0,1-1.39.57,10.5,10.5,0,0,1-1.78.139h-.167v3.032h19.025Zm-39.263-17.7a13.672,13.672,0,0,1,1-3.824,5.324,5.324,0,0,1,1.836-2.295,5.44,5.44,0,0,1,5.563,0,5.414,5.414,0,0,1,1.85,2.295,13.619,13.619,0,0,1,1.029,3.824,39.294,39.294,0,0,1,.32,5.354,41.171,41.171,0,0,1-.306,5.34,13.766,13.766,0,0,1-1.015,3.866,5.642,5.642,0,0,1-1.836,2.351,4.686,4.686,0,0,1-2.767.792,4.751,4.751,0,0,1-2.781-.792,5.592,5.592,0,0,1-1.85-2.351,14.034,14.034,0,0,1-1.029-3.866,39.289,39.289,0,0,1-.32-5.34,40.914,40.914,0,0,1,.306-5.354m19.4-1.641a13.1,13.1,0,0,0-2.92-4.965,11.9,11.9,0,0,0-4.617-2.948,18.081,18.081,0,0,0-6.133-.974q-7.343,0-11.112,3.922T319.82,121.21a21.892,21.892,0,0,0,1.015,7.009,13.066,13.066,0,0,0,2.92,4.979,12,12,0,0,0,4.631,2.962,17.961,17.961,0,0,0,6.147.987q7.315,0,11.084-3.949t3.769-11.988a21.78,21.78,0,0,0-1.015-6.995m-49.305,15.8q-1.21-2.879-1.21-8.692a38.279,38.279,0,0,1,.292-5.02,14.718,14.718,0,0,1,.918-3.686,5.305,5.305,0,0,1,1.641-2.266,3.927,3.927,0,0,1,2.434-.765,4.916,4.916,0,0,1,2.823.765,5.312,5.312,0,0,1,1.807,2.253,12.736,12.736,0,0,1,.96,3.671,39.956,39.956,0,0,1,.278,4.993,41.251,41.251,0,0,1-.278,5.131,12.181,12.181,0,0,1-.96,3.63,4.949,4.949,0,0,1-1.807,2.156,5.206,5.206,0,0,1-2.823.709,4.174,4.174,0,0,1-4.074-2.879m18.593-36.7H303.946v3h.445a13.546,13.546,0,0,1,1.78.111,3.931,3.931,0,0,1,1.46.473,2.6,2.6,0,0,1,1,1.071,4.016,4.016,0,0,1,.376,1.877v3.143q0,.251.014.668t.056.959q.042.543.083,1.155t.07,1.2q.111,1.392.223,2.976h-.389a9.577,9.577,0,0,0-1.391-1.835,8.3,8.3,0,0,0-1.85-1.433,9.784,9.784,0,0,0-2.337-.946,11.212,11.212,0,0,0-2.906-.348,11.857,11.857,0,0,0-4.9.959,9.159,9.159,0,0,0-3.616,2.92,13.865,13.865,0,0,0-2.239,4.978,29.268,29.268,0,0,0-.765,7.135,28.611,28.611,0,0,0,.765,7.064,13.431,13.431,0,0,0,2.253,4.909,9.078,9.078,0,0,0,3.658,2.865,12.446,12.446,0,0,0,4.95.931,11.949,11.949,0,0,0,3-.348,8.878,8.878,0,0,0,2.406-1,8.374,8.374,0,0,0,1.891-1.572,11.149,11.149,0,0,0,1.46-2.086h.528l1.585,4.45h11.042v-3.032h-.223a11.071,11.071,0,0,1-1.794-.139,3.947,3.947,0,0,1-1.5-.556,2.933,2.933,0,0,1-1.043-1.2,4.7,4.7,0,0,1-.39-2.086Zm-41.864,15.965a2.913,2.913,0,0,1,1.071,1.335,7.017,7.017,0,0,1,.473,2.058q.112,1.2.111,2.614v3.143l-4.672.167q-6.4.2-9.582,2.42t-3.185,6.87a11.014,11.014,0,0,0,.7,4.1,8.062,8.062,0,0,0,1.906,2.892,7.623,7.623,0,0,0,2.837,1.711,10.818,10.818,0,0,0,3.518.556,12.953,12.953,0,0,0,2.8-.264,7.312,7.312,0,0,0,2.128-.82,8.637,8.637,0,0,0,1.78-1.405q.835-.848,1.78-1.988h.5l1.2,3.922h10.6v-3.032h-.223a5.8,5.8,0,0,1-1.613-.195,2.12,2.12,0,0,1-1.057-.653,2.887,2.887,0,0,1-.57-1.238,8.773,8.773,0,0,1-.181-1.947V115.008a12.04,12.04,0,0,0-.751-4.52,7,7,0,0,0-2.239-2.99,9.577,9.577,0,0,0-3.727-1.655,23.621,23.621,0,0,0-5.243-.515,30.633,30.633,0,0,0-4.547.32,14.913,14.913,0,0,0-3.727,1.015,6.723,6.723,0,0,0-2.531,1.808,4.021,4.021,0,0,0-.932,2.67,3,3,0,0,0,1.933,2.948,14.807,14.807,0,0,0,5.772.862,15.548,15.548,0,0,1,.18-2.461,6.082,6.082,0,0,1,.626-1.947,3.617,3.617,0,0,1,4.881-1.266m-6.633,16.1a4.857,4.857,0,0,1,1-1.975,4.647,4.647,0,0,1,1.863-1.265,9.1,9.1,0,0,1,2.865-.542l2.559-.167v4.283a11.241,11.241,0,0,1-.376,3.018,6.835,6.835,0,0,1-1.084,2.295,4.994,4.994,0,0,1-1.7,1.46,4.709,4.709,0,0,1-2.211.515,2.689,2.689,0,0,1-2.448-1.224,6.926,6.926,0,0,1-.779-3.671,10.789,10.789,0,0,1,.306-2.726m-7.723-19.331H248.922v3.032h1.641a3.276,3.276,0,0,1,1.6.348,1.348,1.348,0,0,1,.626,1.294,7.064,7.064,0,0,1-.181,1.571,13.881,13.881,0,0,1-.459,1.572L248.282,125.3q-.083.278-.292.974t-.459,1.544q-.25.849-.5,1.738t-.389,1.557q-.278-1.446-.793-3.282t-1.21-3.643l-3.811-10.792q-.167-.472-.348-1.14a5.18,5.18,0,0,1-.181-1.363,1.713,1.713,0,0,1,.515-1.349,1.991,1.991,0,0,1,1.377-.459h2.392v-3.032H226.921v3.032a9.589,9.589,0,0,1,1.655.126,3.91,3.91,0,0,1,1.252.431,3.118,3.118,0,0,1,.946.834,5.305,5.305,0,0,1,.709,1.335l9.345,24.782h7.51l8.261-23.363a20.8,20.8,0,0,1,.918-2.184,4.943,4.943,0,0,1,.848-1.252,2.167,2.167,0,0,1,.89-.57,3.59,3.59,0,0,1,1.043-.139h1.14Zm-49.609,27.507v3.032h18.107v-3.032h-.667a7.881,7.881,0,0,1-1.335-.125,3.477,3.477,0,0,1-1.321-.514,3.073,3.073,0,0,1-1-1.113,4,4,0,0,1-.4-1.947V93.313H211.829v3h.668a8.605,8.605,0,0,1,1.321.111,3.559,3.559,0,0,1,1.321.487,3.012,3.012,0,0,1,1.015,1.057,3.561,3.561,0,0,1,.4,1.822V129.86a4,4,0,0,1-.4,1.947,3.082,3.082,0,0,1-1,1.113,3.478,3.478,0,0,1-1.307.514,7.78,7.78,0,0,1-1.349.125ZM196.78,109.278a2.913,2.913,0,0,1,1.071,1.335,7.017,7.017,0,0,1,.473,2.058q.111,1.2.111,2.614v3.143l-4.673.167q-6.4.2-9.582,2.42T181,127.885a11.014,11.014,0,0,0,.7,4.1,8.062,8.062,0,0,0,1.906,2.892,7.623,7.623,0,0,0,2.837,1.711,10.819,10.819,0,0,0,3.518.556,12.951,12.951,0,0,0,2.795-.264,7.322,7.322,0,0,0,2.128-.82,8.667,8.667,0,0,0,1.78-1.405q.834-.848,1.78-1.988h.5l1.2,3.922h10.6v-3.032h-.223a5.8,5.8,0,0,1-1.613-.195,2.12,2.12,0,0,1-1.057-.653,2.887,2.887,0,0,1-.57-1.238,8.773,8.773,0,0,1-.181-1.947V115.008a12.041,12.041,0,0,0-.751-4.52,7,7,0,0,0-2.239-2.99,9.578,9.578,0,0,0-3.727-1.655,23.63,23.63,0,0,0-5.243-.515,30.638,30.638,0,0,0-4.547.32,14.919,14.919,0,0,0-3.727,1.015,6.722,6.722,0,0,0-2.531,1.808,4.024,4.024,0,0,0-.932,2.67,3,3,0,0,0,1.933,2.948,14.807,14.807,0,0,0,5.772.862,15.549,15.549,0,0,1,.18-2.461,6.083,6.083,0,0,1,.626-1.947,3.617,3.617,0,0,1,4.881-1.266m-6.633,16.1a4.857,4.857,0,0,1,1-1.975,4.647,4.647,0,0,1,1.863-1.265,9.1,9.1,0,0,1,2.865-.542l2.559-.167v4.283a11.262,11.262,0,0,1-.376,3.018,6.845,6.845,0,0,1-1.085,2.295,4.994,4.994,0,0,1-1.7,1.46,4.709,4.709,0,0,1-2.211.515,2.689,2.689,0,0,1-2.448-1.224,6.927,6.927,0,0,1-.778-3.671,10.792,10.792,0,0,1,.306-2.726m-19.64,10.847a14.975,14.975,0,0,0,4.881-2.559,11.124,11.124,0,0,0,3.115-3.935,11.664,11.664,0,0,0,1.085-5.049,11.456,11.456,0,0,0-.6-3.8,9.008,9.008,0,0,0-1.919-3.143,15.566,15.566,0,0,0-3.379-2.684,35.669,35.669,0,0,0-4.979-2.448A42.817,42.817,0,0,1,164,110.432a13.622,13.622,0,0,1-2.865-2.031,5.7,5.7,0,0,1-1.432-2.072,6.468,6.468,0,0,1-.389-2.253,5.461,5.461,0,0,1,.445-2.267,4.758,4.758,0,0,1,1.21-1.655,5.075,5.075,0,0,1,1.794-1,6.988,6.988,0,0,1,2.17-.334,4.881,4.881,0,0,1,2.795.779,6.322,6.322,0,0,1,1.878,1.961,8.593,8.593,0,0,1,1.043,2.559,11.417,11.417,0,0,1,.32,2.573,11.7,11.7,0,0,0,3.073-.361,6.69,6.69,0,0,0,2.2-1,4.167,4.167,0,0,0,1.307-1.5,4.113,4.113,0,0,0,.431-1.863,4.982,4.982,0,0,0-.723-2.6,6.215,6.215,0,0,0-2.211-2.1,12.893,12.893,0,0,0-3.769-1.4,24.947,24.947,0,0,0-5.424-.515,18.408,18.408,0,0,0-5.563.807,13.363,13.363,0,0,0-4.422,2.309,10.8,10.8,0,0,0-2.92,3.616,10.426,10.426,0,0,0-1.057,4.728,12.935,12.935,0,0,0,.542,3.838,9.4,9.4,0,0,0,1.794,3.254,13.94,13.94,0,0,0,3.3,2.8,32.746,32.746,0,0,0,5.02,2.517q2.392,1,4.186,1.877a15.583,15.583,0,0,1,2.976,1.836,6.675,6.675,0,0,1,1.766,2.086,5.509,5.509,0,0,1,.584,2.573,6.231,6.231,0,0,1-.473,2.434,5.5,5.5,0,0,1-1.391,1.961,6.6,6.6,0,0,1-2.225,1.307,8.715,8.715,0,0,1-2.976.473,7.731,7.731,0,0,1-3.129-.626,6.6,6.6,0,0,1-2.462-1.863,9,9,0,0,1-1.613-3.088,14.3,14.3,0,0,1-.584-4.3,10.246,10.246,0,0,0-2.406.278,5.926,5.926,0,0,0-2.058.918,4.752,4.752,0,0,0-1.447,1.641,5.147,5.147,0,0,0-.542,2.475,6.57,6.57,0,0,0,2.851,5.368,12.7,12.7,0,0,0,4.1,1.863,23.937,23.937,0,0,0,6.4.723,20.874,20.874,0,0,0,6.411-.918m-51.917-2.67v3.032H136.7v-3.032h-.668a7.88,7.88,0,0,1-1.335-.125,3.48,3.48,0,0,1-1.321-.514,3.077,3.077,0,0,1-1-1.113,4,4,0,0,1-.4-1.947V93.313H118.589v3h.667a8.6,8.6,0,0,1,1.321.111,3.556,3.556,0,0,1,1.321.487,3.013,3.013,0,0,1,1.015,1.057,3.566,3.566,0,0,1,.4,1.822V129.86a4.006,4.006,0,0,1-.4,1.947,3.087,3.087,0,0,1-1,1.113,3.481,3.481,0,0,1-1.307.514,7.781,7.781,0,0,1-1.349.125ZM98.075,117.066h13.517v-3.421H98.075V99.4h9.6a3.024,3.024,0,0,1,2.587,1.112,6.448,6.448,0,0,1,1.057,3.2l.278,2.7h3.977l-.223-10.486H83.723v3h2.392a5.078,5.078,0,0,1,1.168.125,1.9,1.9,0,0,1,.918.515,2.65,2.65,0,0,1,.612,1.112,6.853,6.853,0,0,1,.223,1.947v27.535a5.93,5.93,0,0,1-.223,1.794,2.238,2.238,0,0,1-.626,1.029,2.052,2.052,0,0,1-.932.459,5.558,5.558,0,0,1-1.14.111H83.723v3.032H117.1l.417-10.486h-3.949l-.445,2.67a10.237,10.237,0,0,1-.4,1.738,4.724,4.724,0,0,1-.709,1.377,2.967,2.967,0,0,1-2.531,1.224h-11.4Z" transform="translate(0 -6.703)" fill="#0090df"/>
    <path id="Trazado_6" data-name="Trazado 6" d="M365.794,89.231a6.321,6.321,0,0,1-1.156,4,3.963,3.963,0,0,1-3.273,1.4H359.6V82.806h1.8a3.952,3.952,0,0,1,3.273,1.393,6.426,6.426,0,0,1,1.119,4.095Zm2.683,4.283a9.261,9.261,0,0,0,1.016-4.393v-.815a9.234,9.234,0,0,0-1.034-4.411,7.345,7.345,0,0,0-2.878-2.994,8.282,8.282,0,0,0-4.18-1.052H355.95V97.566h5.488a8.34,8.34,0,0,0,4.174-1.071,7.275,7.275,0,0,0,2.866-2.981m6.152-9.114H371.1V97.566h3.528Zm.428-3.275a1.973,1.973,0,1,0-3.946,0c0,.067,0,.133.01.2h-.01v1.8h1.973a1.985,1.985,0,0,0,1.973-2m8.6,12.718a2.286,2.286,0,0,1-.974.931,3.032,3.032,0,0,1-1.436.347,1.8,1.8,0,0,1-1.265-.426,1.408,1.408,0,0,1-.462-1.083l.012-.207q.17-1.825,2.811-1.825h1.314Zm.5,3.723h3.553v-.207a6.29,6.29,0,0,1-.523-2.835V88.817a4.279,4.279,0,0,0-1.43-3.438,5.745,5.745,0,0,0-3.863-1.223,7.278,7.278,0,0,0-2.9.553,4.663,4.663,0,0,0-2,1.527,3.532,3.532,0,0,0-.706,2.117h3.516a1.447,1.447,0,0,1,.505-1.168,2.1,2.1,0,0,1,1.393-.426,1.843,1.843,0,0,1,1.478.547,2.17,2.17,0,0,1,.469,1.46v.755H382.04a7.652,7.652,0,0,0-4.484,1.131A3.722,3.722,0,0,0,376,93.867a3.6,3.6,0,0,0,1.272,2.823,4.672,4.672,0,0,0,3.206,1.12,4.255,4.255,0,0,0,3.322-1.424,3.916,3.916,0,0,0,.353,1.18M396.29,87.7l.049-3.382a3.683,3.683,0,0,0-1.095-.158,3.258,3.258,0,0,0-2.932,1.813l-.1-1.57h-3.322V97.566h3.516V88.951a2.576,2.576,0,0,1,2.616-1.35,9.562,9.562,0,0,1,1.266.1m4.406-3.3h-3.529V97.566H400.7Zm.431-3.275a1.973,1.973,0,1,0-3.946,0,1.923,1.923,0,0,0,.01.2h-.01v1.8h1.973a1.985,1.985,0,0,0,1.973-2M411,90.855a5.381,5.381,0,0,1-.718,3.138,2.535,2.535,0,0,1-4.015-.012,4.921,4.921,0,0,1-.706-2.87A5.477,5.477,0,0,1,406.27,88a2.3,2.3,0,0,1,2-1.005A2.334,2.334,0,0,1,410.285,88,4.87,4.87,0,0,1,411,90.855m3.516.262-.024-.9a6.542,6.542,0,0,0-1.88-4.429,5.994,5.994,0,0,0-4.35-1.63,6.338,6.338,0,0,0-3.292.839,5.522,5.522,0,0,0-2.172,2.373,7.805,7.805,0,0,0-.754,3.492v.158a7,7,0,0,0,1.7,4.965,6.555,6.555,0,0,0,9.083-.006,6.881,6.881,0,0,0,1.691-4.861" transform="translate(-128.647)" fill="#161615"/>
  </g>
</svg>
